<svg id="Capa_1" data-name="Capa 1" xmlns="http://www.w3.org/2000/svg" viewBox="0 0 409.08 408.84"><path d="M93,367.57c1-6.68,1.75-13.42,3.1-20q12.12-59.42,59.91-96.85a157.25,157.25,0,0,1,80.89-33c35.34-3.89,68.51,3.19,99.25,21.12s53.18,43.44,67.38,76c11.85,27.17,15.57,55.61,11.63,85.05a160.24,160.24,0,0,1-32.1,77.09c-.72.94-1.37,1.94-2.26,3.21,1.11,1.17,2.16,2.32,3.26,3.42q55.59,55.6,111.21,111.21c7.31,7.31,9.05,15.91,3.66,22.86-2.59,3.35-7,5.29-10.59,7.87h-7.19c-4.31-3.2-9.09-5.92-12.85-9.66Q414,562,360.09,507.82c-1.19-1.18-2.42-2.31-3.64-3.48-2,1.48-3.59,2.69-5.21,3.84-46.93,33.34-98,41.81-152,21.81-54.42-20.13-88.14-59.91-102.17-116.18-2-8.06-2.73-16.44-4-24.68Zm161.85,138.7c70.16,0,128-57.52,127.75-127.76A127.69,127.69,0,0,0,254.89,250.83c-70.3-.12-127.73,57.32-127.73,127.65S184.62,506.26,254.85,506.27Z" transform="translate(-93 -216.65)"/></svg>