<?xml version="1.0" encoding="UTF-8"?>
<svg xmlns="http://www.w3.org/2000/svg" xmlns:xlink="http://www.w3.org/1999/xlink" width="860.37pt" height="817.02pt" viewBox="0 0 860.37 817.02" version="1.1">
<defs>
<clipPath id="clip1">
  <path d="M 0 0 L 860.371094 0 L 860.371094 817.019531 L 0 817.019531 Z M 0 0 "/>
</clipPath>
</defs>
<g id="surface1">
<path style=" stroke:none;fill-rule:nonzero;fill:rgb(6.698608%,7.099915%,7.099915%);fill-opacity:1;" d="M 518.507813 593.75 C 493.972656 617.46875 463.710938 635.460938 431.003906 646.914063 C 398.285156 636.277344 368.84375 617.46875 344.308594 593.75 L 518.507813 593.75 "/>
<g clip-path="url(#clip1)" clip-rule="nonzero">
<path style=" stroke:none;fill-rule:nonzero;fill:rgb(6.698608%,7.099915%,7.099915%);fill-opacity:1;" d="M 164.386719 119.402344 C 229.8125 46.613281 324.679688 0 431.003906 0 C 537.320313 0 632.191406 45.800781 697.617188 119.402344 C 725.421875 112.046875 754.863281 107.136719 784.3125 107.136719 L 784.3125 227.363281 C 830.105469 255.984375 860.367188 306.691406 860.367188 364.757813 C 860.367188 422.820313 830.105469 473.53125 783.492188 502.152344 L 782.675781 505.425781 C 763.863281 682.082031 611.742188 817.019531 428.546875 817.019531 C 245.347656 817.019531 94.867188 679.625 76.054688 502.152344 C 30.261719 473.53125 0 422.007813 0 364.757813 C 0 306.691406 30.261719 255.984375 76.054688 227.363281 L 76.054688 107.136719 C 107.136719 107.953125 136.578125 112.046875 164.386719 119.402344 Z M 268.253906 165.203125 C 316.507813 139.851563 372.117188 125.945313 431.820313 125.945313 C 490.703125 125.945313 546.316406 140.667969 594.570313 165.203125 C 606.019531 157.84375 618.285156 151.300781 629.734375 145.574219 C 577.394531 97.324219 507.878906 67.882813 431.820313 67.882813 C 354.9375 67.882813 285.425781 97.324219 233.082031 145.574219 C 243.71875 151.300781 256.804688 158.660156 268.253906 165.203125 Z M 267.433594 246.984375 C 233.082031 218.363281 192.191406 196.28125 147.214844 184.015625 L 147.214844 464.535156 C 147.214844 621.5625 273.976563 747.507813 431.820313 747.507813 C 589.664063 747.507813 716.429688 621.5625 716.429688 464.535156 L 716.429688 184.015625 C 671.445313 196.28125 630.554688 217.542969 596.207031 246.984375 C 549.585938 214.273438 493.972656 194.644531 432.640625 194.644531 C 370.480469 195.464844 313.230469 214.273438 267.433594 246.984375 "/>
</g>
<path style=" stroke:none;fill-rule:nonzero;fill:rgb(6.698608%,7.099915%,7.099915%);fill-opacity:1;" d="M 519.324219 464.535156 C 566.761719 458.8125 646.09375 459.625 646.09375 459.625 C 644.460938 473.53125 646.09375 516.058594 600.296875 541.410156 C 592.933594 546.316406 574.121094 552.039063 556.128906 552.859375 C 511.972656 554.496094 449.8125 555.316406 449.8125 555.316406 C 461.261719 506.246094 480.074219 469.441406 519.324219 464.535156 "/>
<path style=" stroke:none;fill-rule:nonzero;fill:rgb(6.698608%,7.099915%,7.099915%);fill-opacity:1;" d="M 342.671875 464.535156 C 381.933594 469.441406 400.742188 506.246094 411.371094 555.316406 C 411.371094 555.316406 349.214844 554.496094 305.058594 552.859375 C 287.0625 552.039063 268.253906 545.496094 260.890625 541.410156 C 215.089844 515.238281 216.726563 473.53125 215.089844 459.625 C 215.089844 459.625 295.238281 459.625 342.671875 464.535156 "/>
<path style=" stroke:none;fill-rule:nonzero;fill:rgb(6.698608%,7.099915%,7.099915%);fill-opacity:1;" d="M 514.421875 689.441406 C 490.703125 704.160156 462.082031 712.339844 431.003906 712.339844 C 399.925781 712.339844 371.300781 704.160156 347.585938 689.441406 C 347.585938 689.441406 349.214844 679.625 354.128906 673.082031 C 359.851563 664.089844 364.757813 661.632813 364.757813 661.632813 C 385.199219 667.359375 407.285156 670.632813 431.003906 670.632813 C 453.902344 670.632813 476.800781 667.359375 497.246094 661.632813 C 497.246094 661.632813 503.789063 664.90625 509.515625 673.902344 C 513.601563 682.898438 514.421875 689.441406 514.421875 689.441406 "/>
</g>
</svg>
